<svg xmlns="http://www.w3.org/2000/svg" width="92.17" height="167.237" viewBox="0 0 92.17 167.237">
  <g id="Group_14" data-name="Group 14" transform="translate(-1579.809 -415.703)">
    <path id="Path_69" data-name="Path 69" d="M1625.894,437.591a5.471,5.471,0,0,0,5.472-5.472V421.175a5.472,5.472,0,1,0-10.944,0v10.944a5.47,5.47,0,0,0,5.472,5.472Z" fill="#ffd400"/>
    <path id="Path_70" data-name="Path 70" d="M1594.665,444.2a5.473,5.473,0,0,0,7.737-7.737l-8.208-8.208a5.473,5.473,0,0,0-7.737,7.737Z" fill="#ffd400"/>
    <path id="Path_71" data-name="Path 71" d="M1653.254,445.8a5.453,5.453,0,0,0,3.869-1.6l8.208-8.208a5.473,5.473,0,0,0-7.737-7.737l-8.208,8.208a5.473,5.473,0,0,0,3.868,9.341Z" fill="#ffd400"/>
    <path id="Path_72" data-name="Path 72" d="M1607.656,568.82h14.12v10.2a3.922,3.922,0,1,0,7.844,0v-10.2H1645.7c14.119,0,26.278-12.158,26.278-26.278v-7.06a3.706,3.706,0,0,0-3.922-3.922h-20a26.452,26.452,0,0,0-18.434,7.845v-20.4a33.253,33.253,0,0,0-3.922-66.284,32.978,32.978,0,0,0-33.338,32.946,33.437,33.437,0,0,0,29.416,32.946v21.572a28.5,28.5,0,0,0-20-8.629h-18.042a3.706,3.706,0,0,0-3.922,3.922v5.491A27.954,27.954,0,0,0,1607.656,568.82Zm40.4-29.415h16.081v3.137c0,9.806-8.629,18.434-18.434,18.434H1629.62v-3.137C1629.62,548.033,1638.249,539.405,1648.054,539.405Zm-47.85-53.736a25.494,25.494,0,1,1,25.494,25.494A25.443,25.443,0,0,1,1600.2,485.669Zm-12.551,53.736h14.12a20.086,20.086,0,0,1,20,20v1.569h-14.12a20.087,20.087,0,0,1-20-20Z" fill="#fff"/>
    <path id="Path_73" data-name="Path 73" d="M1629.62,503.718v-1.961a10.4,10.4,0,0,0,6.275-9.414v-.784a9.893,9.893,0,0,0-10.2-10.2,2.353,2.353,0,1,1,0-4.706h6.275a3.922,3.922,0,0,0,0-7.844h-2.353v-1.177a3.922,3.922,0,0,0-7.844,0V469.6a10.4,10.4,0,0,0-6.276,9.413,9.893,9.893,0,0,0,10.2,10.2,2.53,2.53,0,0,1,2.353,2.353v.784a2.531,2.531,0,0,1-2.353,2.354h-5.883a3.922,3.922,0,1,0,0,7.844h1.961v1.177a3.922,3.922,0,1,0,7.844,0Z" fill="#fff"/>
  </g>
</svg>
