<svg xmlns="http://www.w3.org/2000/svg" width="189.065" height="201.673" viewBox="0 0 189.065 201.673">
  <g id="Group_6" data-name="Group 6" transform="translate(-752.79 -430.751)">
    <path id="Path_53" data-name="Path 53" d="M835.7,455.961a6.3,6.3,0,0,0,6.3-6.3V437.053a6.3,6.3,0,0,0-12.605,0v12.605a6.3,6.3,0,0,0,6.3,6.3Z" transform="translate(11.622 0)" fill="#ffd400"/>
    <path id="Path_54" data-name="Path 54" d="M805.116,461.891a6.3,6.3,0,0,0,8.91-8.911l-9.453-9.453a6.3,6.3,0,0,0-8.911,8.911Z" transform="translate(6.241 1.675)" fill="#ffd400"/>
    <path id="Path_55" data-name="Path 55" d="M863.062,463.738a6.278,6.278,0,0,0,4.456-1.847l9.453-9.453a6.3,6.3,0,0,0-8.911-8.911l-9.453,9.454a6.3,6.3,0,0,0,4.455,10.757Z" transform="translate(15.773 1.675)" fill="#ffd400"/>
    <path id="Path_56" data-name="Path 56" d="M835.7,583.971a6.3,6.3,0,0,0-6.3,6.3v12.605a6.3,6.3,0,0,0,12.605,0V590.273a6.3,6.3,0,0,0-6.3-6.3Z" transform="translate(11.622 23.244)" fill="#ffd400"/>
    <path id="Path_57" data-name="Path 57" d="M867.5,577.6a6.3,6.3,0,0,0-8.911,8.911l9.454,9.453a6.3,6.3,0,0,0,8.909-8.911Z" transform="translate(15.788 22.014)" fill="#ffd400"/>
    <path id="Path_58" data-name="Path 58" d="M805.146,577.6l-9.454,9.453a6.3,6.3,0,1,0,8.911,8.911l9.454-9.453a6.3,6.3,0,0,0-8.911-8.911Z" transform="translate(6.211 22.014)" fill="#ffd400"/>
    <path id="Path_59" data-name="Path 59" d="M940.6,522.007a160.72,160.72,0,0,0-26.248-26.36,134.042,134.042,0,0,0-29.341-18.169,88.558,88.558,0,0,0-75.382,0,134.633,134.633,0,0,0-29.341,18.169,160.742,160.742,0,0,0-26.25,26.36h0a6.307,6.307,0,0,0,0,7.54,160.8,160.8,0,0,0,26.25,26.359,134,134,0,0,0,29.341,18.17,88.558,88.558,0,0,0,75.382,0,134.634,134.634,0,0,0,29.341-18.17A160.68,160.68,0,0,0,940.6,529.547h0a6.307,6.307,0,0,0,0-7.54Zm-86.539-20.518a25.133,25.133,0,0,0-13.488,0l-9.63-16.678a44.109,44.109,0,0,1,32.749,0Zm5.861,24.287a12.6,12.6,0,1,1-3.692-8.913A12.605,12.605,0,0,1,859.926,525.776ZM829.666,507.8a25.207,25.207,0,0,0-6.766,11.67H803.658a44.118,44.118,0,0,1,16.381-28.361ZM822.9,532.078a25.215,25.215,0,0,0,6.755,11.67l-9.614,16.69a44.115,44.115,0,0,1-16.382-28.361Zm8.036,34.663,9.63-16.678a25.129,25.129,0,0,0,13.486,0l9.643,16.678a44.123,44.123,0,0,1-32.75,0Zm34.028-22.993a25.2,25.2,0,0,0,6.779-11.67H891a44.116,44.116,0,0,1-16.382,28.361Zm6.779-24.274a25.208,25.208,0,0,0-6.756-11.67l9.616-16.69a44.116,44.116,0,0,1,16.382,28.361Zm-104.528,6.3a158.789,158.789,0,0,1,21.2-20.483c2.757-2.186,5.8-4.459,9.139-6.7a56.589,56.589,0,0,0,0,54.358c-3.336-2.233-6.4-4.505-9.139-6.7a158.854,158.854,0,0,1-21.2-20.482Zm139.01,20.482c-2.757,2.187-5.8,4.459-9.137,6.7a56.6,56.6,0,0,0,0-54.358c3.336,2.233,6.4,4.505,9.137,6.7a158.7,158.7,0,0,1,21.2,20.482,158.714,158.714,0,0,1-21.2,20.483Z" transform="translate(0 5.811)" fill="#fff"/>
  </g>
</svg>
