<svg xmlns="http://www.w3.org/2000/svg" width="137.331" height="170.373" viewBox="0 0 137.331 170.373">
  <g id="Group_10" data-name="Group 10" transform="translate(-1049.302 -417.751)">
    <g id="Group_9" data-name="Group 9" transform="translate(1094.965 417.751)">
      <path id="Path_60" data-name="Path 60" d="M1122.07,438.867a5.278,5.278,0,0,0,5.279-5.279V423.03a5.279,5.279,0,1,0-10.557,0v10.559a5.278,5.278,0,0,0,5.279,5.279Z" transform="translate(-1082.573 -417.751)" fill="#ffd400"/>
      <path id="Path_61" data-name="Path 61" d="M1090.691,445.628a5.279,5.279,0,0,0,7.464-7.464l-7.918-7.918a5.279,5.279,0,0,0-7.464,7.464Z" transform="translate(-1081.321 -418.141)" fill="#ffd400"/>
      <path id="Path_62" data-name="Path 62" d="M1149.431,447.175a5.256,5.256,0,0,0,3.731-1.547l7.918-7.918a5.279,5.279,0,0,0-7.464-7.464l-7.918,7.919a5.279,5.279,0,0,0,3.733,9.01Z" transform="translate(-1083.539 -418.141)" fill="#ffd400"/>
    </g>
    <path id="Path_63" data-name="Path 63" d="M1186.633,536.76a14.275,14.275,0,0,0-3.878-9.692,14.3,14.3,0,0,0,3.7-9.495c0-8.167-7.1-14.813-15.837-14.813h-28.455a91.053,91.053,0,0,0,3.805-23.228v-4.755c0-10.789-9.384-19.567-20.918-19.567h-5.083a5.753,5.753,0,0,0-5.592,4.208l-2.725,10.2c-3.474,13.15-14.894,29.1-27.5,32.52a15.818,15.818,0,0,0-14.466-8.714H1049.3v10.946h20.375a4.188,4.188,0,0,1,4.315,4.037v66.061a4.188,4.188,0,0,1-4.315,4.037H1049.3v10.946h20.375A15.967,15.967,0,0,0,1083.7,581.5l16.75,5.273a59.975,59.975,0,0,0,17.883,2.672h42.3c8.731,0,15.836-6.644,15.836-14.813a15.2,15.2,0,0,0-.811-4.671,15.141,15.141,0,0,0,10.978-14.181,14.432,14.432,0,0,0-3.722-9.5A14.3,14.3,0,0,0,1186.633,536.76Zm-32.2-9.24a5.99,5.99,0,0,0,6.016,5.036h9.985a4.047,4.047,0,1,1,0,8.075h-10.167a5.484,5.484,0,1,0,0,10.944h10.167a4.047,4.047,0,1,1,0,8.075h-10.167a5.485,5.485,0,1,0,0,10.945,4.046,4.046,0,1,1,0,8.074h-42.119a51.141,51.141,0,0,1-14.077-2.086l-18.56-5.735v-57.48c7.768-1.594,15.51-6.395,22.431-13.919a68.733,68.733,0,0,0,15.07-26.961l1.681-6.161h.353c5.182,0,9.4,3.944,9.4,8.792v4.755a73.023,73.023,0,0,1-3.355,19.734l-4.173,14.1h43.516a4.046,4.046,0,1,1,0,8.074h-10.167a5.677,5.677,0,0,0-5.85,5.472Z" transform="translate(0 -1.322)" fill="#fff"/>
  </g>
</svg>
