<svg xmlns="http://www.w3.org/2000/svg" width="147.918" height="165.215" viewBox="0 0 147.918 165.215">
  <g id="Group_19" data-name="Group 19" transform="translate(-1217.042 -2720)">
    <path id="Path_67" data-name="Path 67" d="M1438.152,582.966a21.079,21.079,0,0,0,21.079-21.079V503.445a21.078,21.078,0,0,0-21.079-21.078h-11.118l-2.054-9.17h0a10.539,10.539,0,0,0-10.276-8.246h-42.156a10.539,10.539,0,0,0-10.276,8.246l-2.054,9.17h-27.824a21.076,21.076,0,0,0-21.079,21.078v58.442a21.078,21.078,0,0,0,21.079,21.079Zm-116.327-21.079V503.445a10.536,10.536,0,0,1,10.539-10.538h32.144a5.268,5.268,0,0,0,5.269-4.111l2.978-13.175h42.158l2.977,13.175a5.27,5.27,0,0,0,5.269,4.111h15.361a10.536,10.536,0,0,1,10.539,10.538v58.442a10.54,10.54,0,0,1-10.539,10.54H1332.389a10.541,10.541,0,0,1-10.54-10.54Z" transform="translate(-94.271 2302.249)" fill="#fff"/>
    <path id="Path_68" data-name="Path 68" d="M1392.965,563.811a35.515,35.515,0,1,0-25.088-10.4,35.495,35.495,0,0,0,25.088,10.4Zm0-60.44a24.977,24.977,0,1,1-17.636,7.316A24.952,24.952,0,0,1,1392.965,503.371Z" transform="translate(-94.271 2302.249)" fill="#fff"/>
    <path id="Path_64" data-name="Path 64" d="M1391.963,439.64a5.473,5.473,0,0,0,5.473-5.472V423.223a5.473,5.473,0,0,0-10.945,0v10.945a5.473,5.473,0,0,0,5.472,5.472Z" transform="translate(-94.271 2302.249)" fill="#ffd400"/>
    <path id="Path_65" data-name="Path 65" d="M1360.735,446.244a5.472,5.472,0,0,0,7.736-7.737l-8.208-8.208a5.473,5.473,0,0,0-7.737,7.737Z" transform="translate(-94.271 2302.249)" fill="#ffd400"/>
    <path id="Path_66" data-name="Path 66" d="M1419.324,447.848a5.447,5.447,0,0,0,3.868-1.6l8.209-8.208a5.473,5.473,0,0,0-7.737-7.737l-8.208,8.209a5.472,5.472,0,0,0,3.868,9.34Z" transform="translate(-94.271 2302.249)" fill="#ffd400"/>
  </g>
</svg>
