<svg xmlns="http://www.w3.org/2000/svg" width="226.674" height="149.584" viewBox="0 0 226.674 149.584">
  <g id="Group_5" data-name="Group 5" transform="translate(-458.331 -458.068)">
    <path id="Path_49" data-name="Path 49" d="M607.107,520.382a6.688,6.688,0,0,0,10.111,0,8.105,8.105,0,0,0,2.047-5.538V465.861a8.071,8.071,0,0,0-2.384-5.836,6.711,6.711,0,0,0-5.608-1.9,6.552,6.552,0,0,0-1.11.319L463.433,505.984a7.128,7.128,0,0,0-3.686,2.779,8.218,8.218,0,0,0-1.416,4.633v33.831a8.219,8.219,0,0,0,1.416,4.634,7.163,7.163,0,0,0,3.686,2.779l20.337,6.6,10.28,40.687a7.764,7.764,0,0,0,2.551,4.131,6.679,6.679,0,0,0,4.329,1.589H524.6a6.9,6.9,0,0,0,5.651-3.023,8.269,8.269,0,0,0,1.223-6.727l-5.839-23.115,84.532,27.389a6.519,6.519,0,0,0,2,.312,6.722,6.722,0,0,0,4.255-1.542,8,8,0,0,0,2.851-6.183V540.623a8.125,8.125,0,0,0-2.047-5.537,6.7,6.7,0,0,0-10.111,0,8.124,8.124,0,0,0-2.047,5.537v43.75l-132.532-42.86v-22.4l132.532-42.861v38.588A8.1,8.1,0,0,0,607.107,520.382ZM499.9,566.483l9.612,3.058,5.77,22.639H506.4l-6.513-25.7Z" transform="translate(0)" fill="#fff"/>
    <g id="Group_4" data-name="Group 4" transform="translate(641.905 472.298)">
      <path id="Path_50" data-name="Path 50" d="M638.982,524.163A7.835,7.835,0,0,0,646.818,532H662.49a7.837,7.837,0,0,0,0-15.673H646.818a7.835,7.835,0,0,0-7.836,7.836Z" transform="translate(-627.227 -465.536)" fill="#ffd400"/>
      <path id="Path_51" data-name="Path 51" d="M633.027,494.767a7.836,7.836,0,0,0,11.08,11.078l11.754-11.754a7.836,7.836,0,0,0-11.078-11.078Z" transform="translate(-630.73 -480.858)" fill="#ffd400"/>
      <path id="Path_52" data-name="Path 52" d="M630.773,551.523a7.812,7.812,0,0,0,2.3,5.54l11.754,11.754A7.837,7.837,0,0,0,655.9,557.738l-11.754-11.754a7.836,7.836,0,0,0-13.375,5.539Z" transform="translate(-630.773 -453.715)" fill="#ffd400"/>
    </g>
  </g>
</svg>
