<svg xmlns="http://www.w3.org/2000/svg" width="1604.796" height="1002.768" viewBox="0 0 1604.796 1002.768">
  <path id="Path_82" data-name="Path 82" d="M533.064,2515.725c53.405-20.021,104.69-44.625,153.324-75.1,33.47-20.969,65.831-43.627,95.517-70.165l3.575-2.751c17.124-13.569,32.916-28.738,48.375-44.24,30.549-30.635,59.445-62.829,84.521-98.53l3.945-4.828q149.193-206.088,166.478-463.244a888.192,888.192,0,0,0-12.229-217.951c-26.616-148.337-92.633-274.839-195.966-380.587C810.309,1086.4,729.339,1029.689,643.018,980.89c-32.25-18.227-67-24.654-103.679-20.225-89.489,10.8-158.119,88.75-157.688,182.095.32,71.353,30.845,126.437,90.487,162.574,43.493,26.345,86.629,53.073,125.647,86.356,56.031,47.786,99.426,104.867,119.779,178.268,19.984,72.019,21.253,145.126,8.568,218.591-6.041,34.985-15.213,69.126-29.661,101.525-2.86,1.242-3.55,4.109-4.66,6.657-25.273,57.925-59.3,109.346-103.272,153.92q-66.608,67.532-152.276,104.3c-57.325,24.618-117.387,35.18-179.027,36.907-32.521.909-61.788,11.507-88.91,29.365-4.672,3.087-10.651,4.994-12.624,11.445-1.048,1.127-2.022,2.317-3.144,3.341q-75.5,68.108-62.6,171.047c11.268,89.249,92.916,160.322,179.57,156.941,39.7-1.549,79.281-3.967,118.521-10.637,26.851-4.571,53.553-9.844,80.12-17.6" transform="translate(2564.113 -88.055) rotate(90)" fill="#fad403"/>
</svg>
